<svg width="21" height="21" viewBox="0 0 21 21" fill="none" xmlns="http://www.w3.org/2000/svg">
<path d="M10.9922 8.0752V16H10.1792V8.0752H10.9922ZM10.0547 5.79004C10.0547 5.61914 10.1011 5.47754 10.1938 5.36523C10.2915 5.24805 10.4233 5.18945 10.5894 5.18945C10.7603 5.18945 10.8921 5.24805 10.9849 5.36523C11.0825 5.47754 11.1313 5.61914 11.1313 5.79004C11.1313 5.95605 11.0825 6.09521 10.9849 6.20752C10.8921 6.31982 10.7603 6.37598 10.5894 6.37598C10.4233 6.37598 10.2915 6.31982 10.1938 6.20752C10.1011 6.09521 10.0547 5.95605 10.0547 5.79004Z" fill="#A3A3A3"/>
<circle cx="10.5" cy="10.5" r="10" stroke="#A3A3A3"/>
</svg>
